{
.appVersion = "983";
copyright = "Copyright 2016 Google Inc. All Rights Reserved.";
customParameters = (
{
name = description;
value = "Designed by Monotype design team.";
},
{
name = license;
value = "This Font Software is licensed under the SIL Open Font License, Version 1.1. This Font Software is distributed on an \"AS IS\" BASIS, WITHOUT WARRANTIES OR CONDITIONS OF ANY KIND, either express or implied. See the SIL Open Font License for the specific language, permissions and limitations governing your use of this Font Software.";
},
{
name = licenseURL;
value = "http://scripts.sil.org/OFL";
},
{
name = vendorID;
value = GOOG;
},
{
name = trademark;
value = "Noto is a trademark of Google Inc.";
},
{
name = fsType;
value = (
);
},
{
name = panose;
value = (
2,
11,
5,
2,
4,
5,
4,
2,
2,
4
);
},
{
name = unicodeRanges;
value = (
112
);
},
{
name = codePageRanges;
value = (
1252
);
},
{
name = glyphOrder;
value = (
.notdef,
null,
uni000D,
space,
uni1B80,
uni1B81,
uni1B82,
uni1B83,
uni1B84,
uni1B85,
uni1B86,
uni1B87,
uni1B88,
uni1B89,
uni1B8A,
uni1B8B,
uni1B8C,
uni1B8D,
uni1B8E,
uni1B8F,
uni1B90,
uni1B91,
uni1B92,
uni1B93,
uni1B94,
uni1B95,
uni1B96,
uni1B97,
uni1B98,
uni1B99,
uni1B9A,
uni1B9B,
uni1B9C,
uni1B9D,
uni1B9E,
uni1B9F,
uni1BA0,
uni1BA1,
uni1BA2,
uni1BA3,
uni1BA4,
uni1BA5,
uni1BA6,
uni1BA7,
uni1BA8,
uni1BA9,
uni1BAA,
uni1BAB,
uni1BAC,
uni1BAD,
uni1BAE,
uni1BAF,
uni1BB0,
uni1BB1,
uni1BB2,
uni1BB3,
uni1BB4,
uni1BB5,
uni1BB6,
uni1BB7,
uni1BB8,
uni1BB9,
uni1BBA,
uni1BBB,
uni1BBC,
uni1BBD,
uni1BBE,
uni1BBF,
uni1CC0,
uni1CC1,
uni1CC2,
uni1CC3,
uni1CC4,
uni1CC5,
uni1CC6,
uni1CC7,
uni1BA21BA5,
uni1BA31BA5,
uni1BA11BA5
);
}
);
date = "2016-11-10 14:47:26 +0000";
designer = "Monotype Design Team";
designerURL = "http://www.monotype.com/studio";
disablesNiceNames = 1;
familyName = "Noto Sans Sundanese";
features = (
{
code = "sub uni1BA1 uni1BA5 by uni1BA11BA5;\012sub uni1BA2 uni1BA5 by uni1BA21BA5;\012sub uni1BA3 uni1BA5 by uni1BA31BA5;\012";
name = ccmp;
}
);

glyphs = (
{
glyphname = .notdef;
lastChange = "2016-11-10 14:47:13 +0000";
layers = (
{
layerId = "1A1DD590-1BFD-4E9D-ABB9-B5AFB25FEE83";
paths = (
{
closed = 1;
nodes = (
"1034 0 LINE",
"1034 1462 LINE",
"193 1462 LINE",
"193 0 LINE"
);
},
{
closed = 1;
nodes = (
"297 1358 LINE",
"930 1358 LINE",
"930 104 LINE",
"297 104 LINE"
);
}
);
width = 1229;
}
);
note = .notdef;
},
{
glyphname = uni1B80;
lastChange = "2016-11-10 14:47:09 +0000";
layers = (
{
layerId = "1A1DD590-1BFD-4E9D-ABB9-B5AFB25FEE83";
paths = (
{
closed = 1;
nodes = (
"-322 1548 OFFCURVE",
"-223 1647 OFFCURVE",
"-223 1767 CURVE SMOOTH",
"-223 1887 OFFCURVE",
"-321 1987 OFFCURVE",
"-442 1987 CURVE SMOOTH",
"-561 1987 OFFCURVE",
"-662 1887 OFFCURVE",
"-662 1767 CURVE SMOOTH",
"-662 1646 OFFCURVE",
"-561 1548 OFFCURVE",
"-442 1548 CURVE SMOOTH"
);
},
{
closed = 1;
nodes = (
"-498 1667 OFFCURVE",
"-543 1712 OFFCURVE",
"-543 1767 CURVE SMOOTH",
"-543 1822 OFFCURVE",
"-499 1866 OFFCURVE",
"-442 1866 CURVE SMOOTH",
"-386 1866 OFFCURVE",
"-344 1823 OFFCURVE",
"-344 1767 CURVE SMOOTH",
"-344 1711 OFFCURVE",
"-386 1667 OFFCURVE",
"-442 1667 CURVE SMOOTH"
);
}
);
width = 0;
}
);
note = uni1B80;
unicode = 1B80;
},
{
glyphname = uni1B81;
lastChange = "2016-11-10 14:47:09 +0000";
layers = (
{
layerId = "1A1DD590-1BFD-4E9D-ABB9-B5AFB25FEE83";
paths = (
{
closed = 1;
nodes = (
"-340 1548 LINE",
"-127 1913 LINE",
"-219 1968 LINE",
"-381 1704 LINE",
"-528 1923 LINE",
"-616 1923 LINE",
"-756 1714 LINE",
"-676 1657 LINE",
"-580 1792 LINE",
"-414 1548 LINE"
);
}
);
width = 0;
}
);
note = uni1B81;
unicode = 1B81;
},
{
glyphname = uni1B82;
lastChange = "2016-11-10 14:47:09 +0000";
layers = (
{
layerId = "1A1DD590-1BFD-4E9D-ABB9-B5AFB25FEE83";
paths = (
{
closed = 1;
nodes = (
"621 0 LINE",
"416 582 LINE",
"279 582 LINE",
"483 0 LINE"
);
},
{
closed = 1;
nodes = (
"344 0 LINE",
"139 582 LINE",
"2 582 LINE",
"207 0 LINE"
);
}
);
width = 793;
}
);
note = uni1B82;
unicode = 1B82;
},
{
glyphname = uni1B83;
lastChange = "2016-11-10 14:47:09 +0000";
layers = (
{
layerId = "1A1DD590-1BFD-4E9D-ABB9-B5AFB25FEE83";
paths = (
{
closed = 1;
nodes = (
"1147 -27 OFFCURVE",
"1258 -8 OFFCURVE",
"1350 29 CURVE SMOOTH",
"1534 103 OFFCURVE",
"1632 254 OFFCURVE",
"1632 457 CURVE SMOOTH",
"1632 532 OFFCURVE",
"1610 600 OFFCURVE",
"1565 663 CURVE SMOOTH",
"1475 788 OFFCURVE",
"1303 864 OFFCURVE",
"1104 864 CURVE",
"1612 1335 LINE",
"1626 1462 LINE",
"770 1462 LINE",
"719 1300 LINE",
"1325 1300 LINE",
"854 864 LINE",
"807 715 LINE",
"999 715 LINE SMOOTH",
"1252 715 OFFCURVE",
"1427 614 OFFCURVE",
"1427 457 CURVE SMOOTH",
"1427 261 OFFCURVE",
"1275 141 OFFCURVE",
"1018 141 CURVE SMOOTH",
"599 141 OFFCURVE",
"360 390 OFFCURVE",
"360 807 CURVE SMOOTH",
"360 1023 OFFCURVE",
"412 1209 OFFCURVE",
"553 1409 CURVE SMOOTH",
"621 1507 LINE",
"403 1507 LINE",
"386 1484 LINE",
"340 1417 LINE SMOOTH",
"228 1252 OFFCURVE",
"162 1023 OFFCURVE",
"162 807 CURVE SMOOTH",
"162 633 OFFCURVE",
"196 483 OFFCURVE",
"265 357 CURVE SMOOTH",
"402 104 OFFCURVE",
"663 -27 OFFCURVE",
"1018 -27 CURVE SMOOTH"
);
}
);
width = 1784;
}
);
note = uni1B83;
unicode = 1B83;
},
{
glyphname = uni1B84;
lastChange = "2016-11-10 14:47:09 +0000";
layers = (
{
layerId = "1A1DD590-1BFD-4E9D-ABB9-B5AFB25FEE83";
paths = (
{
closed = 1;
nodes = (
"899 0 LINE",
"1038 422 LINE",
"846 422 LINE",
"758 162 LINE",
"207 162 LINE",
"582 1300 LINE",
"836 1300 LINE",
"889 1462 LINE",
"438 1462 LINE",
"-45 0 LINE"
);
}
);
width = 1149;
}
);
note = uni1B84;
unicode = 1B84;
},
{
glyphname = uni1B85;
lastChange = "2016-11-10 14:40:32 +0000";
layers = (
{
layerId = "1A1DD590-1BFD-4E9D-ABB9-B5AFB25FEE83";
paths = (
{
closed = 1;
nodes = (
"1341 0 LINE",
"1378 111 LINE",
"1106 354 LINE SMOOTH",
"1038 412 OFFCURVE",
"1004 455 OFFCURVE",
"1004 483 CURVE SMOOTH",
"1004 532 OFFCURVE",
"1035 557 OFFCURVE",
"1096 557 CURVE SMOOTH",
"1505 557 LINE",
"1559 719 LINE",
"1094 719 LINE SMOOTH",
"915 719 OFFCURVE",
"815 634 OFFCURVE",
"815 489 CURVE SMOOTH",
"815 417 OFFCURVE",
"855 345 OFFCURVE",
"936 272 CURVE SMOOTH",
"1061 162 LINE",
"444 162 LINE",
"874 1462 LINE",
"201 1462 LINE",
"147 1300 LINE",
"616 1300 LINE",
"188 0 LINE"
);
}
);
width = 1567;
}
);
note = uni1B85;
unicode = 1B85;
},
{
glyphname = uni1B86;
lastChange = "2016-11-10 14:47:09 +0000";
layers = (
{
layerId = "1A1DD590-1BFD-4E9D-ABB9-B5AFB25FEE83";
paths = (
{
closed = 1;
nodes = (
"1177 -27 OFFCURVE",
"1297 -8 OFFCURVE",
"1398 29 CURVE SMOOTH",
"1599 104 OFFCURVE",
"1714 257 OFFCURVE",
"1714 457 CURVE SMOOTH",
"1714 532 OFFCURVE",
"1692 600 OFFCURVE",
"1647 663 CURVE SMOOTH",
"1557 788 OFFCURVE",
"1385 864 OFFCURVE",
"1186 864 CURVE",
"1277 949 OFFCURVE",
"1365 983 OFFCURVE",
"1470 983 CURVE SMOOTH",
"1547 983 OFFCURVE",
"1588 956 OFFCURVE",
"1621 929 CURVE SMOOTH",
"1654 901 OFFCURVE",
"1679 874 OFFCURVE",
"1724 874 CURVE SMOOTH",
"1779 874 OFFCURVE",
"1815 907 OFFCURVE",
"1815 958 CURVE SMOOTH",
"1815 983 OFFCURVE",
"1806 1006 OFFCURVE",
"1788 1029 CURVE",
"1751 1073 OFFCURVE",
"1684 1102 OFFCURVE",
"1593 1102 CURVE SMOOTH",
"1548 1102 OFFCURVE",
"1486 1092 OFFCURVE",
"1409 1071 CURVE",
"1694 1335 LINE",
"1708 1462 LINE",
"852 1462 LINE",
"801 1300 LINE",
"1407 1300 LINE",
"936 864 LINE",
"889 715 LINE",
"1081 715 LINE SMOOTH",
"1334 715 OFFCURVE",
"1509 614 OFFCURVE",
"1509 457 CURVE SMOOTH",
"1509 396 OFFCURVE",
"1490 341 OFFCURVE",
"1452 293 CURVE SMOOTH",
"1375 196 OFFCURVE",
"1228 141 OFFCURVE",
"1036 141 CURVE SMOOTH",
"599 141 OFFCURVE",
"360 375 OFFCURVE",
"360 807 CURVE SMOOTH",
"360 1023 OFFCURVE",
"412 1209 OFFCURVE",
"553 1409 CURVE SMOOTH",
"621 1507 LINE",
"403 1507 LINE",
"386 1484 LINE",
"340 1417 LINE SMOOTH",
"228 1252 OFFCURVE",
"162 1023 OFFCURVE",
"162 807 CURVE SMOOTH",
"162 279 OFFCURVE",
"473 -27 OFFCURVE",
"1036 -27 CURVE SMOOTH"
);
}
);
width = 1866;
}
);
note = uni1B86;
unicode = 1B86;
},
{
glyphname = uni1B87;
lastChange = "2016-11-10 14:47:09 +0000";
layers = (
{
layerId = "1A1DD590-1BFD-4E9D-ABB9-B5AFB25FEE83";
paths = (
{
closed = 1;
nodes = (
"969 0 LINE",
"1120 434 LINE SMOOTH",
"1155 538 OFFCURVE",
"1198 573 OFFCURVE",
"1266 573 CURVE SMOOTH",
"1325 573 OFFCURVE",
"1356 550 OFFCURVE",
"1357 503 CURVE SMOOTH",
"1357 475 OFFCURVE",
"1351 445 OFFCURVE",
"1342 416 CURVE SMOOTH",
"1337 401 OFFCURVE",
"1333 388 OFFCURVE",
"1329 375 CURVE SMOOTH",
"1208 0 LINE",
"1399 0 LINE",
"1546 442 LINE SMOOTH",
"1556 472 OFFCURVE",
"1561 500 OFFCURVE",
"1561 525 CURVE SMOOTH",
"1561 645 OFFCURVE",
"1449 733 OFFCURVE",
"1294 733 CURVE SMOOTH",
"1231 733 OFFCURVE",
"1176 724 OFFCURVE",
"1131 705 CURVE SMOOTH",
"1040 668 OFFCURVE",
"983 605 OFFCURVE",
"938 477 CURVE SMOOTH",
"825 162 LINE",
"444 162 LINE",
"877 1462 LINE",
"168 1462 LINE",
"446 770 LINE",
"188 0 LINE"
);
},
{
closed = 1;
nodes = (
"414 1300 LINE",
"623 1300 LINE",
"526 1016 LINE"
);
}
);
width = 1647;
}
);
note = uni1B87;
unicode = 1B87;
},
{
glyphname = uni1B88;
lastChange = "2016-11-10 14:47:09 +0000";
layers = (
{
layerId = "1A1DD590-1BFD-4E9D-ABB9-B5AFB25FEE83";
paths = (
{
closed = 1;
nodes = (
"979 -27 OFFCURVE",
"1100 4 OFFCURVE",
"1205 67 CURVE SMOOTH",
"1414 192 OFFCURVE",
"1532 426 OFFCURVE",
"1532 705 CURVE SMOOTH",
"1532 774 LINE",
"1393 774 LINE SMOOTH",
"1246 774 OFFCURVE",
"1131 782 OFFCURVE",
"1046 797 CURVE SMOOTH",
"876 828 OFFCURVE",
"801 891 OFFCURVE",
"801 1018 CURVE SMOOTH",
"801 1112 OFFCURVE",
"850 1183 OFFCURVE",
"947 1230 CURVE SMOOTH",
"1044 1277 OFFCURVE",
"1199 1300 OFFCURVE",
"1411 1300 CURVE SMOOTH",
"1462 1300 LINE",
"1516 1462 LINE",
"1423 1462 LINE SMOOTH",
"862 1462 OFFCURVE",
"596 1311 OFFCURVE",
"596 1012 CURVE SMOOTH",
"596 728 OFFCURVE",
"827 594 OFFCURVE",
"1323 594 CURVE",
"1323 521 OFFCURVE",
"1299 448 OFFCURVE",
"1251 374 CURVE SMOOTH",
"1154 225 OFFCURVE",
"1000 141 OFFCURVE",
"840 141 CURVE SMOOTH",
"489 141 OFFCURVE",
"279 410 OFFCURVE",
"279 862 CURVE SMOOTH",
"279 926 LINE",
"80 926 LINE",
"80 827 LINE SMOOTH",
"80 652 OFFCURVE",
"111 499 OFFCURVE",
"173 368 CURVE SMOOTH",
"296 105 OFFCURVE",
"525 -27 OFFCURVE",
"840 -27 CURVE SMOOTH"
);
}
);
width = 1628;
}
);
note = uni1B88;
unicode = 1B88;
},
{
glyphname = uni1B89;
lastChange = "2016-11-10 14:47:09 +0000";
layers = (
{
layerId = "1A1DD590-1BFD-4E9D-ABB9-B5AFB25FEE83";
paths = (
{
closed = 1;
nodes = (
"1149 -27 OFFCURVE",
"1260 -9 OFFCURVE",
"1352 26 CURVE SMOOTH",
"1536 97 OFFCURVE",
"1632 224 OFFCURVE",
"1632 395 CURVE SMOOTH",
"1632 635 OFFCURVE",
"1457 780 OFFCURVE",
"1161 780 CURVE",
"1575 995 LINE",
"1593 1151 LINE",
"803 1151 LINE",
"752 989 LINE",
"1260 989 LINE",
"911 809 LINE",
"854 631 LINE",
"1065 631 LINE SMOOTH",
"1310 631 OFFCURVE",
"1427 560 OFFCURVE",
"1427 395 CURVE SMOOTH",
"1427 242 OFFCURVE",
"1267 141 OFFCURVE",
"1018 141 CURVE SMOOTH",
"599 141 OFFCURVE",
"360 390 OFFCURVE",
"360 807 CURVE SMOOTH",
"360 1023 OFFCURVE",
"412 1209 OFFCURVE",
"553 1409 CURVE SMOOTH",
"621 1507 LINE",
"403 1507 LINE",
"386 1484 LINE",
"340 1417 LINE SMOOTH",
"228 1252 OFFCURVE",
"162 1023 OFFCURVE",
"162 807 CURVE SMOOTH",
"162 633 OFFCURVE",
"196 483 OFFCURVE",
"265 357 CURVE SMOOTH",
"402 104 OFFCURVE",
"663 -27 OFFCURVE",
"1018 -27 CURVE SMOOTH"
);
},
{
closed = 1;
nodes = (
"1298 1241 LINE",
"1604 1552 LINE",
"1413 1552 LINE",
"1231 1370 LINE",
"1049 1552 LINE",
"858 1552 LINE",
"1163 1241 LINE"
);
}
);
width = 1784;
}
);
note = uni1B89;
unicode = 1B89;
},
{
glyphname = uni1B8A;
lastChange = "2016-11-10 14:47:09 +0000";
layers = (
{
layerId = "1A1DD590-1BFD-4E9D-ABB9-B5AFB25FEE83";
paths = (
{
closed = 1;
nodes = (
"1214 0 LINE",
"1702 1462 LINE",
"1034 1462 LINE",
"981 1300 LINE",
"1450 1300 LINE",
"1012 0 LINE"
);
},
{
closed = 1;
nodes = (
"387 0 LINE",
"874 1462 LINE",
"207 1462 LINE",
"154 1300 LINE",
"623 1300 LINE",
"184 0 LINE"
);
}
);
width = 1624;
}
);
note = uni1B8A;
unicode = 1B8A;
},
{
glyphname = uni1B8B;
lastChange = "2016-11-10 14:47:09 +0000";
layers = (
{
layerId = "1A1DD590-1BFD-4E9D-ABB9-B5AFB25FEE83";
paths = (
{
closed = 1;
nodes = (
"156 0 LINE",
"586 1300 LINE",
"922 1300 LINE",
"492 0 LINE",
"694 0 LINE",
"1122 1300 LINE",
"1458 1300 LINE",
"1028 0 LINE",
"1231 0 LINE",
"1710 1462 LINE",
"436 1462 LINE",
"-47 0 LINE"
);
}
);
width = 1638;
}
);
note = uni1B8B;
unicode = 1B8B;
},
{
glyphname = uni1B8C;
lastChange = "2016-11-10 14:47:09 +0000";
layers = (
{
layerId = "1A1DD590-1BFD-4E9D-ABB9-B5AFB25FEE83";
paths = (
{
closed = 1;
nodes = (
"1288 0 LINE",
"1524 719 LINE",
"965 719 LINE",
"911 557 LINE",
"1280 557 LINE",
"1149 162 LINE",
"446 162 LINE",
"877 1462 LINE",
"205 1462 LINE",
"152 1300 LINE",
"618 1300 LINE",
"190 0 LINE"
);
}
);
width = 1640;
}
);
note = uni1B8C;
unicode = 1B8C;
},
{
glyphname = uni1B8D;
lastChange = "2016-11-10 14:47:09 +0000";
layers = (
{
layerId = "1A1DD590-1BFD-4E9D-ABB9-B5AFB25FEE83";
paths = (
{
closed = 1;
nodes = (
"1389 0 LINE",
"1155 719 LINE",
"961 719 LINE",
"1141 162 LINE",
"446 162 LINE",
"877 1462 LINE",
"205 1462 LINE",
"152 1300 LINE",
"618 1300 LINE",
"190 0 LINE"
);
}
);
width = 1491;
}
);
note = uni1B8D;
unicode = 1B8D;
},
{
glyphname = uni1B8E;
lastChange = "2016-11-10 14:47:09 +0000";
layers = (
{
layerId = "1A1DD590-1BFD-4E9D-ABB9-B5AFB25FEE83";
paths = (
{
closed = 1;
nodes = (
"930 -29 OFFCURVE",
"987 -16 OFFCURVE",
"1034 9 CURVE SMOOTH",
"1126 59 OFFCURVE",
"1187 151 OFFCURVE",
"1262 383 CURVE SMOOTH",
"1620 1462 LINE",
"1419 1462 LINE",
"1104 510 LINE SMOOTH",
"1073 417 OFFCURVE",
"1045 345 OFFCURVE",
"1020 296 CURVE SMOOTH",
"970 196 OFFCURVE",
"922 156 OFFCURVE",
"846 156 CURVE SMOOTH",
"777 156 OFFCURVE",
"679 214 OFFCURVE",
"553 330 CURVE",
"926 1462 LINE",
"248 1462 LINE",
"195 1300 LINE",
"668 1300 LINE",
"387 436 LINE",
"346 461 OFFCURVE",
"274 479 OFFCURVE",
"213 479 CURVE SMOOTH",
"50 479 OFFCURVE",
"-61 376 OFFCURVE",
"-61 215 CURVE SMOOTH",
"-61 67 OFFCURVE",
"44 -27 OFFCURVE",
"205 -27 CURVE SMOOTH",
"328 -27 OFFCURVE",
"412 22 OFFCURVE",
"479 139 CURVE",
"620 20 OFFCURVE",
"741 -29 OFFCURVE",
"862 -29 CURVE SMOOTH"
);
},
{
closed = 1;
nodes = (
"136 121 OFFCURVE",
"100 164 OFFCURVE",
"100 225 CURVE SMOOTH",
"100 286 OFFCURVE",
"149 324 OFFCURVE",
"209 324 CURVE SMOOTH",
"256 324 OFFCURVE",
"300 305 OFFCURVE",
"340 268 CURVE",
"309 170 OFFCURVE",
"265 121 OFFCURVE",
"207 121 CURVE SMOOTH"
);
}
);
width = 1536;
}
);
note = uni1B8E;
unicode = 1B8E;
},
{
glyphname = uni1B8F;
lastChange = "2016-11-10 14:47:09 +0000";
layers = (
{
layerId = "1A1DD590-1BFD-4E9D-ABB9-B5AFB25FEE83";
paths = (
{
closed = 1;
nodes = (
"860 0 LINE",
"1051 582 LINE",
"1247 0 LINE",
"1440 0 LINE",
"1143 848 LINE",
"958 848 LINE",
"717 162 LINE",
"444 162 LINE",
"877 1462 LINE",
"195 1462 LINE",
"141 1300 LINE",
"618 1300 LINE",
"190 0 LINE"
);
},
{
closed = 1;
nodes = (
"1804 0 LINE",
"1507 848 LINE",
"1313 848 LINE",
"1614 0 LINE"
);
}
);
width = 1706;
}
);
note = uni1B8F;
unicode = 1B8F;
},
{
glyphname = uni1B90;
lastChange = "2016-11-10 14:40:32 +0000";
layers = (
{
layerId = "1A1DD590-1BFD-4E9D-ABB9-B5AFB25FEE83";
paths = (
{
closed = 1;
nodes = (
"969 0 LINE",
"1098 371 LINE SMOOTH",
"1111 409 OFFCURVE",
"1123 436 OFFCURVE",
"1135 453 CURVE SMOOTH",
"1158 486 OFFCURVE",
"1191 510 OFFCURVE",
"1243 510 CURVE SMOOTH",
"1304 510 OFFCURVE",
"1334 483 OFFCURVE",
"1334 429 CURVE SMOOTH",
"1334 407 OFFCURVE",
"1325 368 OFFCURVE",
"1307 311 CURVE SMOOTH",
"1208 0 LINE",
"1401 0 LINE",
"1524 379 LINE SMOOTH",
"1534 408 OFFCURVE",
"1539 434 OFFCURVE",
"1539 459 CURVE SMOOTH",
"1539 580 OFFCURVE",
"1424 670 OFFCURVE",
"1272 670 CURVE SMOOTH",
"1095 670 OFFCURVE",
"980 598 OFFCURVE",
"915 414 CURVE SMOOTH",
"825 162 LINE",
"444 162 LINE",
"877 1462 LINE",
"195 1462 LINE",
"141 1300 LINE",
"618 1300 LINE",
"190 0 LINE"
);
}
);
width = 1698;
}
);
note = uni1B90;
unicode = 1B90;
},
{
glyphname = uni1B91;
lastChange = "2016-11-10 14:47:09 +0000";
layers = (
{
layerId = "1A1DD590-1BFD-4E9D-ABB9-B5AFB25FEE83";
paths = (
{
closed = 1;
nodes = (
"971 0 LINE",
"1188 662 LINE",
"1667 0 LINE",
"1794 0 LINE",
"2281 1462 LINE",
"1276 1462 LINE",
"1190 1206 LINE",
"1386 1206 LINE",
"1419 1300 LINE",
"2030 1300 LINE",
"1683 276 LINE",
"1186 971 LINE",
"1098 971 LINE",
"827 162 LINE",
"424 162 LINE",
"854 1462 LINE",
"209 1462 LINE",
"156 1300 LINE",
"602 1300 LINE",
"172 0 LINE"
);
}
);
width = 2206;
}
);
note = uni1B91;
unicode = 1B91;
},
{
glyphname = uni1B92;
lastChange = "2016-11-10 14:47:09 +0000";
layers = (
{
layerId = "1A1DD590-1BFD-4E9D-ABB9-B5AFB25FEE83";
paths = (
{
closed = 1;
nodes = (
"805 0 LINE",
"1112 936 LINE",
"1489 936 LINE",
"1184 0 LINE",
"1384 0 LINE",
"1745 1098 LINE",
"1165 1098 LINE",
"1284 1462 LINE",
"1085 1462 LINE",
"662 162 LINE",
"319 162 LINE",
"635 1098 LINE",
"127 1098 LINE",
"74 936 LINE",
"383 936 LINE",
"68 0 LINE"
);
}
);
width = 1763;
}
);
note = uni1B92;
unicode = 1B92;
},
{
glyphname = uni1B93;
lastChange = "2016-11-10 14:47:09 +0000";
layers = (
{
layerId = "1A1DD590-1BFD-4E9D-ABB9-B5AFB25FEE83";
paths = (
{
closed = 1;
nodes = (
"776 0 LINE",
"967 582 LINE",
"1161 0 LINE",
"1356 0 LINE",
"1277 232 LINE",
"1061 848 LINE",
"872 848 LINE",
"811 668 LINE",
"631 162 LINE",
"207 162 LINE",
"582 1300 LINE",
"997 1300 LINE",
"1051 1462 LINE",
"438 1462 LINE",
"-45 0 LINE"
);
}
);
width = 1278;
}
);
note = uni1B93;
unicode = 1B93;
},
{
glyphname = uni1B94;
lastChange = "2016-11-10 14:47:09 +0000";
layers = (
{
layerId = "1A1DD590-1BFD-4E9D-ABB9-B5AFB25FEE83";
paths = (
{
closed = 1;
nodes = (
"1341 0 LINE",
"1395 162 LINE",
"590 162 LINE",
"1020 1462 LINE",
"209 1462 LINE",
"156 1300 LINE",
"762 1300 LINE",
"334 0 LINE"
);
}
);
width = 1374;
}
);
note = uni1B94;
unicode = 1B94;
},
{
glyphname = uni1B95;
lastChange = "2016-11-10 14:47:09 +0000";
layers = (
{
layerId = "1A1DD590-1BFD-4E9D-ABB9-B5AFB25FEE83";
paths = (
{
closed = 1;
nodes = (
"1214 0 LINE",
"1698 1462 LINE",
"1028 1462 LINE",
"975 1300 LINE",
"1440 1300 LINE",
"1065 162 LINE",
"446 162 LINE",
"877 1462 LINE",
"207 1462 LINE",
"154 1300 LINE",
"618 1300 LINE",
"190 0 LINE"
);
}
);
width = 1624;
}
);
note = uni1B95;
unicode = 1B95;
},
{
glyphname = uni1B96;
lastChange = "2016-11-10 14:47:09 +0000";
layers = (
{
layerId = "1A1DD590-1BFD-4E9D-ABB9-B5AFB25FEE83";
paths = (
{
closed = 1;
nodes = (
"1214 0 LINE",
"1698 1462 LINE",
"1499 1462 LINE",
"1065 162 LINE",
"446 162 LINE",
"877 1462 LINE",
"207 1462 LINE",
"154 1300 LINE",
"618 1300 LINE",
"190 0 LINE"
);
}
);
width = 1624;
}
);
note = uni1B96;
unicode = 1B96;
},
{
glyphname = uni1B97;
lastChange = "2016-11-10 14:47:09 +0000";
layers = (
{
layerId = "1A1DD590-1BFD-4E9D-ABB9-B5AFB25FEE83";
paths = (
{
closed = 1;
nodes = (
"975 0 LINE",
"1458 1462 LINE",
"1260 1462 LINE",
"825 162 LINE",
"205 162 LINE",
"635 1462 LINE",
"436 1462 LINE",
"-45 0 LINE"
);
}
);
width = 1384;
}
);
note = uni1B97;
unicode = 1B97;
},
{
glyphname = uni1B98;
lastChange = "2016-11-10 14:47:09 +0000";
layers = (
{
layerId = "1A1DD590-1BFD-4E9D-ABB9-B5AFB25FEE83";
paths = (
{
closed = 1;
nodes = (
"754 0 LINE",
"971 662 LINE",
"1450 0 LINE",
"1577 0 LINE",
"2064 1462 LINE",
"1059 1462 LINE",
"973 1206 LINE",
"1169 1206 LINE",
"1202 1300 LINE",
"1812 1300 LINE",
"1466 276 LINE",
"969 971 LINE",
"881 971 LINE",
"610 162 LINE",
"207 162 LINE",
"582 1300 LINE",
"772 1300 LINE",
"823 1462 LINE",
"438 1462 LINE",
"-45 0 LINE"
);
}
);
width = 1987;
}
);
note = uni1B98;
unicode = 1B98;
},
{
glyphname = uni1B99;
lastChange = "2016-11-10 14:47:09 +0000";
layers = (
{
layerId = "1A1DD590-1BFD-4E9D-ABB9-B5AFB25FEE83";
paths = (
{
closed = 1;
nodes = (
"1008 0 LINE",
"1489 1462 LINE",
"207 1462 LINE",
"154 1300 LINE",
"1233 1300 LINE",
"858 162 LINE",
"403 162 LINE",
"633 846 LINE",
"145 846 LINE",
"92 684 LINE",
"375 684 LINE",
"147 0 LINE"
);
}
);
width = 1415;
}
);
note = uni1B99;
unicode = 1B99;
},
{
glyphname = uni1B9A;
lastChange = "2016-11-10 14:47:09 +0000";
layers = (
{
layerId = "1A1DD590-1BFD-4E9D-ABB9-B5AFB25FEE83";
paths = (
{
closed = 1;
nodes = (
"805 0 LINE",
"997 586 LINE",
"1200 0 LINE",
"1401 0 LINE",
"1761 1098 LINE",
"1563 1098 LINE",
"1292 279 LINE",
"1092 874 LINE",
"1284 1462 LINE",
"1085 1462 LINE",
"662 162 LINE",
"319 162 LINE",
"635 1098 LINE",
"127 1098 LINE",
"74 936 LINE",
"383 936 LINE",
"68 0 LINE"
);
}
);
width = 1780;
}
);
note = uni1B9A;
unicode = 1B9A;
},
{
glyphname = uni1B9B;
lastChange = "2016-11-10 14:47:09 +0000";
layers = (
{
layerId = "1A1DD590-1BFD-4E9D-ABB9-B5AFB25FEE83";
paths = (
{
closed = 1;
nodes = (
"668 0 LINE",
"836 512 LINE",
"1049 512 LINE",
"1102 674 LINE",
"889 674 LINE",
"1040 1133 LINE",
"186 1133 LINE",
"133 971 LINE",
"786 971 LINE",
"688 674 LINE",
"205 674 LINE",
"152 512 LINE",
"635 512 LINE",
"465 0 LINE"
);
},
{
closed = 1;
nodes = (
"1096 1300 LINE",
"1149 1462 LINE",
"205 1462 LINE",
"152 1300 LINE"
);
}
);
width = 1096;
}
);
note = uni1B9B;
unicode = 1B9B;
},
{
glyphname = uni1B9C;
lastChange = "2016-11-10 14:47:09 +0000";
layers = (
{
layerId = "1A1DD590-1BFD-4E9D-ABB9-B5AFB25FEE83";
paths = (
{
closed = 1;
nodes = (
"160 0 LINE",
"588 1300 LINE",
"829 1300 LINE",
"397 0 LINE",
"1206 0 LINE",
"1688 1462 LINE",
"1485 1462 LINE",
"1057 162 LINE",
"651 162 LINE",
"1081 1462 LINE",
"438 1462 LINE",
"-41 0 LINE"
);
}
);
width = 1614;
}
);
note = uni1B9C;
unicode = 1B9C;
},
{
glyphname = uni1B9D;
lastChange = "2016-11-10 14:40:32 +0000";
layers = (
{
layerId = "1A1DD590-1BFD-4E9D-ABB9-B5AFB25FEE83";
paths = (
{
closed = 1;
nodes = (
"1137 0 LINE",
"1372 719 LINE",
"760 719 LINE",
"707 557 LINE",
"1128 557 LINE",
"997 162 LINE",
"207 162 LINE",
"582 1300 LINE",
"997 1300 LINE",
"1051 1462 LINE",
"438 1462 LINE",
"-45 0 LINE"
);
}
);
width = 1401;
}
);
note = uni1B9D;
unicode = 1B9D;
},
{
glyphname = uni1B9E;
lastChange = "2016-11-10 14:47:09 +0000";
layers = (
{
layerId = "1A1DD590-1BFD-4E9D-ABB9-B5AFB25FEE83";
paths = (
{
closed = 1;
nodes = (
"1214 0 LINE",
"1432 651 LINE",
"1671 651 LINE",
"1724 813 LINE",
"1485 813 LINE",
"1702 1462 LINE",
"1034 1462 LINE",
"981 1300 LINE",
"1454 1300 LINE",
"1288 813 LINE",
"1034 813 LINE",
"981 651 LINE",
"1235 651 LINE",
"1016 0 LINE"
);
},
{
closed = 1;
nodes = (
"387 0 LINE",
"604 651 LINE",
"844 651 LINE",
"897 813 LINE",
"657 813 LINE",
"874 1462 LINE",
"207 1462 LINE",
"154 1300 LINE",
"627 1300 LINE",
"461 813 LINE",
"207 813 LINE",
"154 651 LINE",
"408 651 LINE",
"188 0 LINE"
);
}
);
width = 1632;
}
);
note = uni1B9E;
unicode = 1B9E;
},
{
glyphname = uni1B9F;
lastChange = "2016-11-10 14:47:09 +0000";
layers = (
{
layerId = "1A1DD590-1BFD-4E9D-ABB9-B5AFB25FEE83";
paths = (
{
closed = 1;
nodes = (
"387 0 LINE",
"604 651 LINE",
"1231 651 LINE",
"1012 0 LINE",
"1214 0 LINE",
"1702 1462 LINE",
"207 1462 LINE",
"154 1300 LINE",
"623 1300 LINE",
"457 813 LINE",
"207 813 LINE",
"154 651 LINE",
"403 651 LINE",
"184 0 LINE"
);
},
{
closed = 1;
nodes = (
"819 1300 LINE",
"1450 1300 LINE",
"1284 813 LINE",
"657 813 LINE"
);
}
);
width = 1632;
}
);
note = uni1B9F;
unicode = 1B9F;
},
{
glyphname = uni1BA0;
lastChange = "2016-11-10 14:47:09 +0000";
layers = (
{
layerId = "1A1DD590-1BFD-4E9D-ABB9-B5AFB25FEE83";
paths = (
{
closed = 1;
nodes = (
"709 0 LINE",
"1135 1300 LINE",
"1397 1300 LINE",
"971 0 LINE",
"1171 0 LINE",
"1651 1462 LINE",
"989 1462 LINE",
"565 162 LINE",
"365 162 LINE",
"594 844 LINE",
"86 844 LINE",
"33 682 LINE",
"342 682 LINE",
"113 0 LINE"
);
}
);
width = 1577;
}
);
note = uni1BA0;
unicode = 1BA0;
},
{
glyphname = uni1BA1;
lastChange = "2016-11-10 14:47:09 +0000";
layers = (
{
layerId = "1A1DD590-1BFD-4E9D-ABB9-B5AFB25FEE83";
paths = (
{
closed = 1;
nodes = (
"-221 -494 LINE",
"96 467 LINE",
"209 467 LINE",
"145 272 LINE",
"272 272 LINE",
"373 582 LINE",
"-12 582 LINE",
"-326 -371 LINE",
"-1018 -371 LINE",
"-983 -264 LINE",
"-1110 -264 LINE",
"-1184 -494 LINE"
);
}
);
width = 0;
}
);
note = uni1BA1;
unicode = 1BA1;
},
{
glyphname = uni1BA2;
lastChange = "2016-11-10 14:47:09 +0000";
layers = (
{
layerId = "1A1DD590-1BFD-4E9D-ABB9-B5AFB25FEE83";
paths = (
{
closed = 1;
nodes = (
"-77 -555 OFFCURVE",
"25 -466 OFFCURVE",
"25 -317 CURVE SMOOTH",
"25 -234 OFFCURVE",
"-33 -134 OFFCURVE",
"-129 -51 CURVE",
"-219 -133 LINE",
"-180 -177 LINE SMOOTH",
"-134 -228 OFFCURVE",
"-111 -277 OFFCURVE",
"-111 -322 CURVE SMOOTH",
"-111 -390 OFFCURVE",
"-159 -434 OFFCURVE",
"-262 -434 CURVE SMOOTH",
"-317 -434 OFFCURVE",
"-382 -410 OFFCURVE",
"-458 -362 CURVE SMOOTH",
"-534 -315 OFFCURVE",
"-631 -234 OFFCURVE",
"-749 -121 CURVE SMOOTH",
"-813 -61 LINE",
"-1198 -254 LINE",
"-1135 -379 LINE",
"-836 -225 LINE",
"-762 -291 LINE SMOOTH",
"-558 -478 OFFCURVE",
"-410 -555 OFFCURVE",
"-258 -555 CURVE SMOOTH"
);
}
);
width = 0;
}
);
note = uni1BA2;
unicode = 1BA2;
},
{
glyphname = uni1BA3;
lastChange = "2016-11-10 14:47:09 +0000";
layers = (
{
layerId = "1A1DD590-1BFD-4E9D-ABB9-B5AFB25FEE83";
paths = (
{
closed = 1;
nodes = (
"-1075 -508 LINE",
"-975 -201 LINE",
"-848 -201 LINE",
"-942 -492 LINE",
"-672 -492 LINE",
"-641 -399 LINE",
"-799 -399 LINE",
"-702 -109 LINE",
"-1059 -109 LINE",
"-1190 -508 LINE"
);
}
);
width = 0;
}
);
note = uni1BA3;
unicode = 1BA3;
},
{
glyphname = uni1BA4;
lastChange = "2016-11-10 14:47:09 +0000";
layers = (
{
layerId = "1A1DD590-1BFD-4E9D-ABB9-B5AFB25FEE83";
paths = (
{
closed = 1;
nodes = (
"-301 1976 LINE",
"-733 1976 LINE",
"-733 1878 LINE",
"-463 1878 LINE",
"-537 1690 LINE",
"-737 1718 LINE",
"-756 1620 LINE",
"-467 1544 LINE"
);
}
);
width = 0;
}
);
note = uni1BA4;
unicode = 1BA4;
},
{
glyphname = uni1BA5;
lastChange = "2016-11-10 14:47:09 +0000";
layers = (
{
layerId = "1A1DD590-1BFD-4E9D-ABB9-B5AFB25FEE83";
paths = (
{
closed = 1;
nodes = (
"-868 -508 LINE",
"-711 -109 LINE",
"-1102 -109 LINE",
"-1102 -207 LINE",
"-868 -207 LINE",
"-985 -508 LINE"
);
}
);
width = 0;
}
);
note = uni1BA5;
unicode = 1BA5;
},
{
glyphname = uni1BA6;
lastChange = "2016-11-10 14:47:09 +0000";
layers = (
{
layerId = "1A1DD590-1BFD-4E9D-ABB9-B5AFB25FEE83";
paths = (
{
closed = 1;
nodes = (
"598 0 LINE",
"643 139 LINE",
"256 139 LINE",
"332 309 LINE",
"547 309 LINE",
"582 420 LINE",
"381 420 LINE",
"516 729 LINE",
"16 729 LINE",
"-29 590 LINE",
"313 590 LINE",
"49 0 LINE"
);
}
);
width = 768;
}
);
note = uni1BA6;
unicode = 1BA6;
},
{
glyphname = uni1BA7;
lastChange = "2016-11-10 14:47:09 +0000";
layers = (
{
layerId = "1A1DD590-1BFD-4E9D-ABB9-B5AFB25FEE83";
paths = (
{
closed = 1;
nodes = (
"621 0 LINE",
"666 139 LINE",
"279 139 LINE",
"539 729 LINE",
"39 729 LINE",
"-6 590 LINE",
"336 590 LINE",
"258 420 LINE",
"43 420 LINE",
"8 309 LINE",
"209 309 LINE",
"72 0 LINE"
);
}
);
width = 768;
}
);
note = uni1BA7;
unicode = 1BA7;
},
{
glyphname = uni1BA8;
lastChange = "2016-11-10 14:47:09 +0000";
layers = (
{
layerId = "1A1DD590-1BFD-4E9D-ABB9-B5AFB25FEE83";
paths = (
{
closed = 1;
nodes = (
"-440 1548 LINE",
"-184 1956 LINE",
"-330 1956 LINE",
"-487 1694 LINE",
"-645 1956 LINE",
"-791 1956 LINE",
"-535 1548 LINE"
);
}
);
width = 0;
}
);
note = uni1BA8;
unicode = 1BA8;
},
{
glyphname = uni1BA9;
lastChange = "2016-11-10 14:47:09 +0000";
layers = (
{
layerId = "1A1DD590-1BFD-4E9D-ABB9-B5AFB25FEE83";
paths = (
{
closed = 1;
nodes = (
"-440 1548 LINE",
"-184 1956 LINE",
"-330 1956 LINE",
"-487 1694 LINE",
"-522 1753 LINE",
"-397 1956 LINE",
"-502 1956 LINE",
"-573 1837 LINE",
"-645 1956 LINE",
"-791 1956 LINE",
"-535 1548 LINE"
);
}
);
width = 0;
}
);
note = uni1BA9;
unicode = 1BA9;
},
{
glyphname = uni1BAA;
lastChange = "2016-11-10 14:47:09 +0000";
layers = (
{
layerId = "1A1DD590-1BFD-4E9D-ABB9-B5AFB25FEE83";
paths = (
{
closed = 1;
nodes = (
"302 -260 OFFCURVE",
"395 -236 OFFCURVE",
"440 -205 CURVE",
"406 -109 LINE",
"347 -142 OFFCURVE",
"288 -158 OFFCURVE",
"227 -158 CURVE SMOOTH",
"167 -158 OFFCURVE",
"137 -141 OFFCURVE",
"137 -106 CURVE SMOOTH",
"137 -97 OFFCURVE",
"143 -85 OFFCURVE",
"154 -70 CURVE SMOOTH",
"165 -56 OFFCURVE",
"194 -30 OFFCURVE",
"240 8 CURVE SMOOTH",
"328 86 LINE",
"357 114 OFFCURVE",
"377 136 OFFCURVE",
"387 151 CURVE SMOOTH",
"407 182 OFFCURVE",
"418 216 OFFCURVE",
"418 260 CURVE SMOOTH",
"418 373 OFFCURVE",
"339 438 OFFCURVE",
"180 455 CURVE",
"383 631 LINE",
"383 674 LINE",
"-10 674 LINE",
"-41 582 LINE",
"162 582 LINE",
"-6 436 LINE",
"-25 379 LINE",
"25 379 LINE SMOOTH",
"120 379 OFFCURVE",
"188 369 OFFCURVE",
"229 350 CURVE SMOOTH",
"269 330 OFFCURVE",
"289 300 OFFCURVE",
"289 260 CURVE SMOOTH",
"289 228 OFFCURVE",
"268 192 OFFCURVE",
"225 152 CURVE SMOOTH",
"193 121 LINE",
"86 27 LINE SMOOTH",
"37 -16 OFFCURVE",
"4 -70 OFFCURVE",
"4 -119 CURVE SMOOTH",
"4 -213 OFFCURVE",
"76 -260 OFFCURVE",
"219 -260 CURVE SMOOTH"
);
}
);
width = 541;
}
);
note = uni1BAA;
unicode = 1BAA;
},
{
glyphname = uni1BAB;
lastChange = "2016-11-10 14:47:09 +0000";
layers = (
{
layerId = "1A1DD590-1BFD-4E9D-ABB9-B5AFB25FEE83";
paths = (
{
closed = 1;
nodes = (
"307 518 LINE",
"307 651 LINE",
"440 651 LINE",
"440 715 LINE",
"307 715 LINE",
"307 848 LINE",
"244 848 LINE",
"244 715 LINE",
"111 715 LINE",
"111 651 LINE",
"244 651 LINE",
"244 518 LINE"
);
}
);
width = 518;
}
);
note = uni1BAB;
unicode = 1BAB;
},
{
glyphname = uni1BAC;
lastChange = "2016-11-10 14:47:09 +0000";
layers = (
{
layerId = "1A1DD590-1BFD-4E9D-ABB9-B5AFB25FEE83";
paths = (
{
closed = 1;
nodes = (
"-909 -555 OFFCURVE",
"-829 -536 OFFCURVE",
"-760 -497 CURVE SMOOTH",
"-623 -421 OFFCURVE",
"-545 -274 OFFCURVE",
"-545 -102 CURVE SMOOTH",
"-545 -80 LINE",
"-668 -80 LINE",
"-668 -106 LINE SMOOTH",
"-668 -164 OFFCURVE",
"-681 -218 OFFCURVE",
"-708 -269 CURVE SMOOTH",
"-761 -370 OFFCURVE",
"-862 -434 OFFCURVE",
"-1006 -434 CURVE SMOOTH",
"-1167 -434 OFFCURVE",
"-1243 -382 OFFCURVE",
"-1243 -295 CURVE SMOOTH",
"-1243 -214 OFFCURVE",
"-1171 -166 OFFCURVE",
"-1042 -166 CURVE SMOOTH",
"-1007 -166 OFFCURVE",
"-967 -167 OFFCURVE",
"-922 -170 CURVE",
"-922 -66 LINE",
"-961 -60 OFFCURVE",
"-1001 -57 OFFCURVE",
"-1042 -57 CURVE SMOOTH",
"-1237 -57 OFFCURVE",
"-1378 -154 OFFCURVE",
"-1378 -295 CURVE SMOOTH",
"-1378 -451 OFFCURVE",
"-1222 -555 OFFCURVE",
"-1001 -555 CURVE SMOOTH"
);
}
);
width = 0;
}
);
note = uni1BAC;
unicode = 1BAC;
},
{
glyphname = uni1BAD;
lastChange = "2016-11-10 14:40:32 +0000";
layers = (
{
layerId = "1A1DD590-1BFD-4E9D-ABB9-B5AFB25FEE83";
paths = (
{
closed = 1;
nodes = (
"-426 -508 LINE",
"-426 -420 LINE",
"-676 -420 LINE",
"-539 -109 LINE",
"-934 -109 LINE",
"-934 -197 LINE",
"-684 -197 LINE",
"-821 -508 LINE"
);
},
{
closed = 1;
nodes = (
"-854 -508 LINE",
"-854 -420 LINE",
"-1104 -420 LINE",
"-967 -109 LINE",
"-1362 -109 LINE",
"-1362 -197 LINE",
"-1112 -197 LINE",
"-1249 -508 LINE"
);
}
);
width = 0;
}
);
note = uni1BAD;
unicode = 1BAD;
},
{
glyphname = uni1BAE;
lastChange = "2016-11-10 14:47:09 +0000";
layers = (
{
layerId = "1A1DD590-1BFD-4E9D-ABB9-B5AFB25FEE83";
paths = (
{
closed = 1;
nodes = (
"387 0 LINE",
"821 1300 LINE",
"1358 1300 LINE",
"930 0 LINE",
"1128 0 LINE",
"1354 682 LINE",
"1595 682 LINE",
"1366 0 LINE",
"1962 0 LINE",
"2388 1300 LINE",
"2650 1300 LINE",
"2224 0 LINE",
"2425 0 LINE",
"2904 1462 LINE",
"2243 1462 LINE",
"1819 162 LINE",
"1618 162 LINE",
"1847 844 LINE",
"1407 844 LINE",
"1612 1462 LINE",
"205 1462 LINE",
"152 1300 LINE",
"616 1300 LINE",
"188 0 LINE"
);
}
);
width = 2830;
}
);
note = uni1BAE;
unicode = 1BAE;
},
{
glyphname = uni1BAF;
lastChange = "2016-11-10 14:47:09 +0000";
layers = (
{
layerId = "1A1DD590-1BFD-4E9D-ABB9-B5AFB25FEE83";
paths = (
{
closed = 1;
nodes = (
"387 0 LINE",
"604 651 LINE",
"1147 651 LINE",
"928 0 LINE",
"1126 0 LINE",
"1343 651 LINE",
"1882 651 LINE",
"1663 0 LINE",
"2400 0 LINE",
"2593 586 LINE",
"2796 0 LINE",
"2996 0 LINE",
"3357 1098 LINE",
"3158 1098 LINE",
"2888 279 LINE",
"2687 874 LINE",
"2879 1462 LINE",
"2681 1462 LINE",
"2257 162 LINE",
"1915 162 LINE",
"2134 813 LINE",
"1397 813 LINE",
"1614 1462 LINE",
"207 1462 LINE",
"154 1300 LINE",
"627 1300 LINE",
"461 813 LINE",
"207 813 LINE",
"154 651 LINE",
"408 651 LINE",
"188 0 LINE"
);
},
{
closed = 1;
nodes = (
"819 1300 LINE",
"1366 1300 LINE",
"1200 813 LINE",
"657 813 LINE"
);
}
);
width = 3373;
}
);
note = uni1BAF;
unicode = 1BAF;
},
{
glyphname = uni1BB0;
lastChange = "2016-11-10 14:47:09 +0000";
layers = (
{
layerId = "1A1DD590-1BFD-4E9D-ABB9-B5AFB25FEE83";
paths = (
{
closed = 1;
nodes = (
"988 -4 OFFCURVE",
"1110 28 OFFCURVE",
"1223 93 CURVE SMOOTH",
"1450 222 OFFCURVE",
"1593 468 OFFCURVE",
"1593 731 CURVE SMOOTH",
"1593 860 OFFCURVE",
"1561 981 OFFCURVE",
"1497 1095 CURVE SMOOTH",
"1368 1323 OFFCURVE",
"1125 1466 OFFCURVE",
"858 1466 CURVE SMOOTH",
"726 1466 OFFCURVE",
"603 1433 OFFCURVE",
"488 1366 CURVE SMOOTH",
"259 1233 OFFCURVE",
"123 988 OFFCURVE",
"123 731 CURVE SMOOTH",
"123 601 OFFCURVE",
"156 479 OFFCURVE",
"222 365 CURVE SMOOTH",
"353 136 OFFCURVE",
"597 -4 OFFCURVE",
"858 -4 CURVE SMOOTH"
);
},
{
closed = 1;
nodes = (
"761 184 OFFCURVE",
"671 209 OFFCURVE",
"586 258 CURVE SMOOTH",
"416 356 OFFCURVE",
"311 536 OFFCURVE",
"311 731 CURVE SMOOTH",
"311 827 OFFCURVE",
"335 917 OFFCURVE",
"384 1002 CURVE SMOOTH",
"481 1171 OFFCURVE",
"663 1278 OFFCURVE",
"858 1278 CURVE SMOOTH",
"955 1278 OFFCURVE",
"1046 1253 OFFCURVE",
"1131 1204 CURVE SMOOTH",
"1299 1104 OFFCURVE",
"1405 923 OFFCURVE",
"1405 731 CURVE SMOOTH",
"1405 635 OFFCURVE",
"1380 544 OFFCURVE",
"1331 459 CURVE SMOOTH",
"1232 288 OFFCURVE",
"1051 184 OFFCURVE",
"858 184 CURVE SMOOTH"
);
}
);
width = 1696;
}
);
note = uni1BB0;
unicode = 1BB0;
},
{
glyphname = uni1BB1;
lastChange = "2016-11-10 14:47:09 +0000";
layers = (
{
layerId = "1A1DD590-1BFD-4E9D-ABB9-B5AFB25FEE83";
paths = (
{
closed = 1;
nodes = (
"1284 0 LINE",
"1518 719 LINE",
"952 719 LINE",
"856 432 LINE",
"1044 432 LINE",
"1092 557 LINE",
"1272 557 LINE",
"1145 162 LINE",
"440 162 LINE",
"817 1300 LINE",
"1143 1300 LINE",
"1188 1176 LINE",
"1380 1176 LINE",
"1282 1462 LINE",
"252 1462 LINE",
"158 1176 LINE",
"344 1176 LINE",
"385 1300 LINE",
"616 1300 LINE",
"186 0 LINE"
);
}
);
width = 1636;
}
);
note = uni1BB1;
unicode = 1BB1;
},
{
glyphname = uni1BB2;
lastChange = "2016-11-10 14:40:32 +0000";
layers = (
{
layerId = "1A1DD590-1BFD-4E9D-ABB9-B5AFB25FEE83";
paths = (
{
closed = 1;
nodes = (
"1184 0 LINE",
"1341 483 LINE",
"1149 483 LINE",
"1044 162 LINE",
"446 162 LINE",
"578 557 LINE",
"932 557 LINE",
"985 719 LINE",
"631 719 LINE",
"877 1462 LINE",
"252 1462 LINE",
"158 1176 LINE",
"344 1176 LINE",
"385 1300 LINE",
"618 1300 LINE",
"190 0 LINE"
);
}
);
width = 1436;
}
);
note = uni1BB2;
unicode = 1BB2;
},
{
glyphname = uni1BB3;
lastChange = "2016-11-10 14:40:32 +0000";
layers = (
{
layerId = "1A1DD590-1BFD-4E9D-ABB9-B5AFB25FEE83";
paths = (
{
closed = 1;
nodes = (
"1341 0 LINE",
"1378 111 LINE",
"1106 354 LINE SMOOTH",
"1038 412 OFFCURVE",
"1004 455 OFFCURVE",
"1004 483 CURVE SMOOTH",
"1004 532 OFFCURVE",
"1035 557 OFFCURVE",
"1096 557 CURVE SMOOTH",
"1505 557 LINE",
"1559 719 LINE",
"1094 719 LINE SMOOTH",
"915 719 OFFCURVE",
"815 634 OFFCURVE",
"815 489 CURVE SMOOTH",
"815 417 OFFCURVE",
"855 345 OFFCURVE",
"936 272 CURVE SMOOTH",
"1061 162 LINE",
"444 162 LINE",
"874 1462 LINE",
"250 1462 LINE",
"156 1176 LINE",
"342 1176 LINE",
"383 1300 LINE",
"616 1300 LINE",
"188 0 LINE"
);
}
);
width = 1567;
}
);
note = uni1BB3;
unicode = 1BB3;
},
{
glyphname = uni1BB4;
lastChange = "2016-11-10 14:47:09 +0000";
layers = (
{
layerId = "1A1DD590-1BFD-4E9D-ABB9-B5AFB25FEE83";
paths = (
{
closed = 1;
nodes = (
"477 0 LINE",
"684 621 LINE",
"1053 621 LINE",
"1135 872 LINE",
"948 872 LINE",
"920 782 LINE",
"737 782 LINE",
"965 1462 LINE",
"238 1462 LINE",
"143 1176 LINE",
"330 1176 LINE",
"371 1300 LINE",
"713 1300 LINE",
"541 782 LINE",
"174 782 LINE",
"92 530 LINE",
"279 530 LINE",
"307 621 LINE",
"485 621 LINE",
"281 0 LINE"
);
}
);
width = 1096;
}
);
note = uni1BB4;
unicode = 1BB4;
},
{
glyphname = uni1BB5;
lastChange = "2016-11-10 14:47:09 +0000";
layers = (
{
layerId = "1A1DD590-1BFD-4E9D-ABB9-B5AFB25FEE83";
paths = (
{
closed = 1;
nodes = (
"1694 0 LINE",
"1266 1300 LINE",
"1411 1300 LINE",
"1452 1176 LINE",
"1638 1176 LINE",
"1546 1462 LINE",
"1014 1462 LINE",
"1442 162 LINE",
"379 162 LINE",
"807 1462 LINE",
"274 1462 LINE",
"182 1176 LINE",
"369 1176 LINE",
"410 1300 LINE",
"555 1300 LINE",
"127 0 LINE"
);
}
);
width = 1774;
}
);
note = uni1BB5;
unicode = 1BB5;
},
{
glyphname = uni1BB6;
lastChange = "2016-11-10 14:40:32 +0000";
layers = (
{
layerId = "1A1DD590-1BFD-4E9D-ABB9-B5AFB25FEE83";
paths = (
{
closed = 1;
nodes = (
"1108 0 LINE",
"1145 111 LINE",
"872 354 LINE SMOOTH",
"804 412 OFFCURVE",
"770 455 OFFCURVE",
"770 483 CURVE SMOOTH",
"770 532 OFFCURVE",
"801 557 OFFCURVE",
"862 557 CURVE SMOOTH",
"1272 557 LINE",
"1325 719 LINE",
"860 719 LINE SMOOTH",
"683 719 OFFCURVE",
"582 634 OFFCURVE",
"582 489 CURVE SMOOTH",
"582 417 OFFCURVE",
"622 345 OFFCURVE",
"702 272 CURVE SMOOTH",
"827 162 LINE",
"207 162 LINE",
"584 1300 LINE",
"748 1300 LINE",
"786 1204 LINE",
"973 1204 LINE",
"889 1462 LINE",
"436 1462 LINE",
"-45 0 LINE"
);
}
);
width = 1358;
}
);
note = uni1BB6;
unicode = 1BB6;
},
{
glyphname = uni1BB7;
lastChange = "2016-11-10 14:40:32 +0000";
layers = (
{
layerId = "1A1DD590-1BFD-4E9D-ABB9-B5AFB25FEE83";
paths = (
{
closed = 1;
nodes = (
"199 0 LINE",
"627 1300 LINE",
"840 1300 LINE",
"408 0 LINE",
"1053 0 LINE",
"1481 1300 LINE",
"1640 1300 LINE",
"1694 1462 LINE",
"1331 1462 LINE",
"903 162 LINE",
"662 162 LINE",
"1092 1462 LINE",
"477 1462 LINE",
"51 162 LINE",
"-109 162 LINE",
"-162 0 LINE"
);
}
);
width = 1520;
}
);
note = uni1BB7;
unicode = 1BB7;
},
{
glyphname = uni1BB8;
lastChange = "2016-11-10 14:47:09 +0000";
layers = (
{
layerId = "1A1DD590-1BFD-4E9D-ABB9-B5AFB25FEE83";
paths = (
{
closed = 1;
nodes = (
"905 -29 OFFCURVE",
"974 4 OFFCURVE",
"1026 72 CURVE SMOOTH",
"1078 140 OFFCURVE",
"1112 243 OFFCURVE",
"1159 383 CURVE SMOOTH",
"1462 1300 LINE",
"1563 1300 LINE",
"1618 1155 LINE",
"1804 1155 LINE",
"1704 1462 LINE",
"1317 1462 LINE",
"1001 510 LINE",
"944 332 LINE SMOOTH",
"900 191 OFFCURVE",
"873 156 OFFCURVE",
"793 156 CURVE SMOOTH",
"772 156 OFFCURVE",
"751 163 OFFCURVE",
"730 178 CURVE SMOOTH",
"688 206 OFFCURVE",
"651 247 OFFCURVE",
"624 284 CURVE SMOOTH",
"610 303 OFFCURVE",
"600 316 OFFCURVE",
"594 324 CURVE",
"969 1462 LINE",
"295 1462 LINE",
"203 1176 LINE",
"389 1176 LINE",
"430 1300 LINE",
"717 1300 LINE",
"434 434 LINE",
"387 462 OFFCURVE",
"311 479 OFFCURVE",
"254 479 CURVE SMOOTH",
"91 479 OFFCURVE",
"-20 376 OFFCURVE",
"-20 215 CURVE SMOOTH",
"-20 67 OFFCURVE",
"85 -27 OFFCURVE",
"246 -27 CURVE SMOOTH",
"369 -27 OFFCURVE",
"453 22 OFFCURVE",
"520 139 CURVE",
"555 98 LINE SMOOTH",
"616 23 OFFCURVE",
"705 -29 OFFCURVE",
"793 -29 CURVE SMOOTH"
);
},
{
closed = 1;
nodes = (
"177 121 OFFCURVE",
"141 164 OFFCURVE",
"141 225 CURVE SMOOTH",
"141 288 OFFCURVE",
"190 324 OFFCURVE",
"250 324 CURVE SMOOTH",
"297 324 OFFCURVE",
"341 305 OFFCURVE",
"381 268 CURVE",
"350 170 OFFCURVE",
"306 121 OFFCURVE",
"248 121 CURVE SMOOTH"
);
}
);
width = 1632;
}
);
note = uni1BB8;
unicode = 1BB8;
},
{
glyphname = uni1BB9;
lastChange = "2016-11-10 14:47:09 +0000";
layers = (
{
layerId = "1A1DD590-1BFD-4E9D-ABB9-B5AFB25FEE83";
paths = (
{
closed = 1;
nodes = (
"1300 0 LINE",
"1337 111 LINE",
"1065 354 LINE SMOOTH",
"997 412 OFFCURVE",
"963 455 OFFCURVE",
"963 483 CURVE SMOOTH",
"963 532 OFFCURVE",
"994 557 OFFCURVE",
"1055 557 CURVE SMOOTH",
"1464 557 LINE",
"1518 719 LINE",
"1053 719 LINE SMOOTH",
"874 719 OFFCURVE",
"774 634 OFFCURVE",
"774 489 CURVE SMOOTH",
"774 417 OFFCURVE",
"814 345 OFFCURVE",
"895 272 CURVE SMOOTH",
"1020 162 LINE",
"399 162 LINE",
"776 1300 LINE",
"940 1300 LINE",
"979 1204 LINE",
"1165 1204 LINE",
"1081 1462 LINE",
"330 1462 LINE",
"238 1176 LINE",
"428 1176 LINE",
"467 1300 LINE",
"575 1300 LINE",
"147 0 LINE"
);
}
);
width = 1526;
}
);
note = uni1BB9;
unicode = 1BB9;
},
{
glyphname = uni1BBA;
lastChange = "2016-11-10 14:47:09 +0000";
layers = (
{
layerId = "1A1DD590-1BFD-4E9D-ABB9-B5AFB25FEE83";
paths = (
{
closed = 1;
nodes = (
"346 0 LINE",
"831 1462 LINE",
"326 1462 LINE",
"272 1300 LINE",
"573 1300 LINE",
"537 1188 LINE",
"238 1188 LINE",
"184 1026 LINE",
"483 1026 LINE",
"145 0 LINE"
);
}
);
width = 745;
}
);
note = uni1BBA;
unicode = 1BBA;
},
{
glyphname = uni1BBB;
lastChange = "2016-11-10 14:47:09 +0000";
layers = (
{
layerId = "1A1DD590-1BFD-4E9D-ABB9-B5AFB25FEE83";
paths = (
{
closed = 1;
nodes = (
"1161 330 LINE",
"1536 1462 LINE",
"971 1462 LINE",
"918 1300 LINE",
"1278 1300 LINE",
"1012 492 LINE",
"498 492 LINE",
"819 1462 LINE",
"252 1462 LINE",
"199 1300 LINE",
"561 1300 LINE",
"242 330 LINE"
);
},
{
closed = 1;
nodes = (
"1051 0 LINE",
"1104 162 LINE",
"184 162 LINE",
"131 0 LINE"
);
}
);
width = 1458;
}
);
note = uni1BBB;
unicode = 1BBB;
},
{
glyphname = uni1BBC;
lastChange = "2016-11-10 14:47:09 +0000";
layers = (
{
layerId = "1A1DD590-1BFD-4E9D-ABB9-B5AFB25FEE83";
paths = (
{
closed = 1;
nodes = (
"1427 -621 OFFCURVE",
"1522 -572 OFFCURVE",
"1567 -487 CURVE",
"1627 -554 OFFCURVE",
"1755 -614 OFFCURVE",
"1855 -614 CURVE SMOOTH",
"2111 -614 OFFCURVE",
"2265 -306 OFFCURVE",
"2290 221 CURVE",
"2109 221 LINE",
"2110 184 LINE SMOOTH",
"2110 77 OFFCURVE",
"2098 -27 OFFCURVE",
"2075 -128 CURVE SMOOTH",
"2028 -332 OFFCURVE",
"1951 -440 OFFCURVE",
"1855 -440 CURVE SMOOTH",
"1804 -440 OFFCURVE",
"1738 -400 OFFCURVE",
"1657 -319 CURVE",
"2251 1462 LINE",
"1581 1462 LINE",
"1528 1300 LINE",
"1999 1300 LINE",
"1501 -176 LINE",
"1445 -129 OFFCURVE",
"1384 -106 OFFCURVE",
"1317 -106 CURVE SMOOTH",
"1264 -106 OFFCURVE",
"1216 -118 OFFCURVE",
"1175 -141 CURVE SMOOTH",
"1091 -189 OFFCURVE",
"1042 -275 OFFCURVE",
"1042 -367 CURVE SMOOTH",
"1042 -516 OFFCURVE",
"1155 -621 OFFCURVE",
"1323 -621 CURVE SMOOTH"
);
},
{
closed = 1;
nodes = (
"1249 -469 OFFCURVE",
"1204 -429 OFFCURVE",
"1204 -365 CURVE SMOOTH",
"1204 -298 OFFCURVE",
"1253 -256 OFFCURVE",
"1317 -256 CURVE SMOOTH",
"1363 -256 OFFCURVE",
"1401 -285 OFFCURVE",
"1430 -344 CURVE",
"1417 -419 OFFCURVE",
"1369 -469 OFFCURVE",
"1313 -469 CURVE SMOOTH"
);
},
{
closed = 1;
nodes = (
"776 0 LINE",
"967 582 LINE",
"1161 0 LINE",
"1356 0 LINE",
"1061 848 LINE",
"872 848 LINE",
"631 162 LINE",
"207 162 LINE",
"582 1300 LINE",
"997 1300 LINE",
"1051 1462 LINE",
"438 1462 LINE",
"-45 0 LINE"
);
}
);
width = 2417;
}
);
note = uni1BBC;
unicode = 1BBC;
},
{
glyphname = uni1BBD;
lastChange = "2016-11-10 14:47:09 +0000";
layers = (
{
layerId = "1A1DD590-1BFD-4E9D-ABB9-B5AFB25FEE83";
paths = (
{
closed = 1;
nodes = (
"2023 0 LINE",
"2077 162 LINE",
"1620 162 LINE",
"1995 1300 LINE",
"2552 1300 LINE",
"2372 743 LINE",
"2124 743 LINE",
"2071 582 LINE",
"2519 582 LINE",
"2810 1462 LINE",
"1847 1462 LINE",
"1417 162 LINE",
"971 162 LINE",
"1405 1462 LINE",
"436 1462 LINE",
"141 563 LINE",
"571 563 LINE",
"625 725 LINE",
"395 725 LINE",
"586 1300 LINE",
"1145 1300 LINE",
"768 162 LINE",
"340 162 LINE",
"287 0 LINE"
);
}
);
width = 2736;
}
);
note = uni1BBD;
unicode = 1BBD;
},
{
glyphname = uni1BBE;
lastChange = "2016-11-10 14:47:09 +0000";
layers = (
{
layerId = "1A1DD590-1BFD-4E9D-ABB9-B5AFB25FEE83";
paths = (
{
closed = 1;
nodes = (
"2064 0 LINE",
"2118 162 LINE",
"1696 162 LINE",
"2126 1462 LINE",
"1229 1462 LINE",
"1176 1300 LINE",
"1868 1300 LINE",
"1493 162 LINE",
"702 162 LINE",
"1133 1462 LINE",
"221 1462 LINE",
"168 1300 LINE",
"874 1300 LINE",
"500 162 LINE",
"205 162 LINE",
"152 0 LINE"
);
},
{
closed = 1;
nodes = (
"449 360 LINE",
"692 1096 LINE",
"199 1096 LINE",
"147 942 LINE",
"471 942 LINE",
"279 360 LINE"
);
},
{
closed = 1;
nodes = (
"1442 360 LINE",
"1686 1096 LINE",
"1192 1096 LINE",
"1141 942 LINE",
"1464 942 LINE",
"1272 360 LINE"
);
}
);
width = 2202;
}
);
note = uni1BBE;
unicode = 1BBE;
},
{
glyphname = uni1BBF;
lastChange = "2016-11-10 14:47:09 +0000";
layers = (
{
layerId = "1A1DD590-1BFD-4E9D-ABB9-B5AFB25FEE83";
paths = (
{
closed = 1;
nodes = (
"1077 0 LINE",
"1565 1462 LINE",
"283 1462 LINE",
"229 1300 LINE",
"1313 1300 LINE",
"874 0 LINE"
);
},
{
closed = 1;
nodes = (
"723 84 LINE",
"776 246 LINE",
"283 246 LINE",
"229 84 LINE"
);
},
{
closed = 1;
nodes = (
"856 489 LINE",
"909 651 LINE",
"283 651 LINE",
"229 489 LINE"
);
},
{
closed = 1;
nodes = (
"989 895 LINE",
"1042 1057 LINE",
"283 1057 LINE",
"229 895 LINE"
);
}
);
width = 1489;
}
);
note = uni1BBF;
unicode = 1BBF;
},
{
glyphname = uni1CC0;
lastChange = "2016-11-10 14:47:09 +0000";
layers = (
{
layerId = "1A1DD590-1BFD-4E9D-ABB9-B5AFB25FEE83";
paths = (
{
closed = 1;
nodes = (
"893 -231 LINE",
"1040 -45 LINE",
"1188 -231 LINE",
"1313 -231 LINE",
"1139 -10 LINE",
"1139 166 LINE",
"1376 205 OFFCURVE",
"1566 397 OFFCURVE",
"1606 637 CURVE",
"1782 637 LINE",
"2003 463 LINE",
"2003 588 LINE",
"1817 735 LINE",
"2003 883 LINE",
"2003 1008 LINE",
"1782 834 LINE",
"1606 834 LINE",
"1566 1073 OFFCURVE",
"1376 1260 OFFCURVE",
"1139 1300 CURVE",
"1139 1477 LINE",
"1313 1698 LINE",
"1188 1698 LINE",
"1040 1511 LINE",
"893 1698 LINE",
"768 1698 LINE",
"942 1477 LINE",
"942 1300 LINE",
"702 1260 OFFCURVE",
"511 1071 OFFCURVE",
"471 834 CURVE",
"295 834 LINE",
"74 1008 LINE",
"74 883 LINE",
"260 735 LINE",
"74 588 LINE",
"74 463 LINE",
"295 637 LINE",
"471 637 LINE",
"510 398 OFFCURVE",
"701 206 OFFCURVE",
"942 166 CURVE",
"942 -10 LINE",
"768 -231 LINE"
);
},
{
closed = 1;
nodes = (
"966 315 OFFCURVE",
"896 334 OFFCURVE",
"831 373 CURVE SMOOTH",
"699 449 OFFCURVE",
"618 588 OFFCURVE",
"618 733 CURVE SMOOTH",
"618 806 OFFCURVE",
"637 874 OFFCURVE",
"675 939 CURVE SMOOTH",
"751 1068 OFFCURVE",
"893 1151 OFFCURVE",
"1040 1151 CURVE SMOOTH",
"1112 1151 OFFCURVE",
"1181 1132 OFFCURVE",
"1246 1095 CURVE SMOOTH",
"1376 1019 OFFCURVE",
"1456 880 OFFCURVE",
"1456 733 CURVE SMOOTH",
"1456 660 OFFCURVE",
"1437 591 OFFCURVE",
"1400 526 CURVE SMOOTH",
"1324 396 OFFCURVE",
"1185 315 OFFCURVE",
"1040 315 CURVE SMOOTH"
);
},
{
closed = 1;
nodes = (
"1151 532 OFFCURVE",
"1241 626 OFFCURVE",
"1241 733 CURVE SMOOTH",
"1241 842 OFFCURVE",
"1149 934 OFFCURVE",
"1040 934 CURVE SMOOTH",
"932 934 OFFCURVE",
"840 842 OFFCURVE",
"840 733 CURVE SMOOTH",
"840 626 OFFCURVE",
"931 532 OFFCURVE",
"1040 532 CURVE SMOOTH"
);
},
{
closed = 1;
nodes = (
"988 641 OFFCURVE",
"948 681 OFFCURVE",
"948 733 CURVE SMOOTH",
"948 785 OFFCURVE",
"988 825 OFFCURVE",
"1040 825 CURVE SMOOTH",
"1091 825 OFFCURVE",
"1133 786 OFFCURVE",
"1133 733 CURVE SMOOTH",
"1133 678 OFFCURVE",
"1091 641 OFFCURVE",
"1040 641 CURVE SMOOTH"
);
}
);
width = 2085;
}
);
note = uni1CC0;
unicode = 1CC0;
},
{
glyphname = uni1CC1;
lastChange = "2016-11-10 14:47:09 +0000";
layers = (
{
layerId = "1A1DD590-1BFD-4E9D-ABB9-B5AFB25FEE83";
paths = (
{
closed = 1;
nodes = (
"806 166 OFFCURVE",
"900 191 OFFCURVE",
"988 242 CURVE SMOOTH",
"1164 342 OFFCURVE",
"1272 530 OFFCURVE",
"1272 733 CURVE SMOOTH",
"1272 835 OFFCURVE",
"1247 930 OFFCURVE",
"1196 1018 CURVE SMOOTH",
"1094 1193 OFFCURVE",
"906 1300 OFFCURVE",
"705 1300 CURVE SMOOTH",
"604 1300 OFFCURVE",
"510 1275 OFFCURVE",
"422 1225 CURVE SMOOTH",
"246 1124 OFFCURVE",
"137 937 OFFCURVE",
"137 733 CURVE SMOOTH",
"137 632 OFFCURVE",
"162 537 OFFCURVE",
"213 450 CURVE SMOOTH",
"314 274 OFFCURVE",
"501 166 OFFCURVE",
"705 166 CURVE SMOOTH"
);
},
{
closed = 1;
nodes = (
"314 559 OFFCURVE",
"287 640 OFFCURVE",
"287 733 CURVE SMOOTH",
"287 824 OFFCURVE",
"313 905 OFFCURVE",
"365 975 CURVE",
"608 731 LINE",
"367 489 LINE"
);
},
{
closed = 1;
nodes = (
"614 315 OFFCURVE",
"532 342 OFFCURVE",
"461 395 CURVE",
"702 637 LINE",
"946 393 LINE",
"874 341 OFFCURVE",
"794 315 OFFCURVE",
"705 315 CURVE SMOOTH"
);
},
{
closed = 1;
nodes = (
"459 1069 LINE",
"534 1124 OFFCURVE",
"616 1151 OFFCURVE",
"705 1151 CURVE SMOOTH",
"792 1151 OFFCURVE",
"873 1124 OFFCURVE",
"948 1071 CURVE",
"702 825 LINE"
);
},
{
closed = 1;
nodes = (
"797 731 LINE",
"1042 977 LINE",
"1095 902 OFFCURVE",
"1122 821 OFFCURVE",
"1122 733 CURVE SMOOTH",
"1122 643 OFFCURVE",
"1095 561 OFFCURVE",
"1040 487 CURVE"
);
}
);
width = 1380;
}
);
note = uni1CC1;
unicode = 1CC1;
},
{
glyphname = uni1CC2;
lastChange = "2016-11-10 14:47:09 +0000";
layers = (
{
layerId = "1A1DD590-1BFD-4E9D-ABB9-B5AFB25FEE83";
paths = (
{
closed = 1;
nodes = (
"806 166 OFFCURVE",
"900 191 OFFCURVE",
"988 242 CURVE SMOOTH",
"1164 342 OFFCURVE",
"1272 530 OFFCURVE",
"1272 733 CURVE SMOOTH",
"1272 835 OFFCURVE",
"1247 930 OFFCURVE",
"1196 1018 CURVE SMOOTH",
"1094 1193 OFFCURVE",
"906 1300 OFFCURVE",
"705 1300 CURVE SMOOTH",
"604 1300 OFFCURVE",
"510 1275 OFFCURVE",
"422 1225 CURVE SMOOTH",
"246 1124 OFFCURVE",
"137 937 OFFCURVE",
"137 733 CURVE SMOOTH",
"137 632 OFFCURVE",
"162 537 OFFCURVE",
"213 450 CURVE SMOOTH",
"314 274 OFFCURVE",
"501 166 OFFCURVE",
"705 166 CURVE SMOOTH"
);
},
{
closed = 1;
nodes = (
"603 315 OFFCURVE",
"512 349 OFFCURVE",
"432 416 CURVE",
"511 477 OFFCURVE",
"602 508 OFFCURVE",
"705 508 CURVE SMOOTH",
"806 508 OFFCURVE",
"896 477 OFFCURVE",
"975 416 CURVE",
"898 349 OFFCURVE",
"808 315 OFFCURVE",
"705 315 CURVE SMOOTH"
);
},
{
closed = 1;
nodes = (
"307 585 OFFCURVE",
"287 657 OFFCURVE",
"287 733 CURVE SMOOTH",
"287 809 OFFCURVE",
"307 881 OFFCURVE",
"346 948 CURVE",
"458 864 OFFCURVE",
"585 823 OFFCURVE",
"705 823 CURVE SMOOTH",
"829 823 OFFCURVE",
"960 867 OFFCURVE",
"1061 948 CURVE",
"1102 881 OFFCURVE",
"1122 809 OFFCURVE",
"1122 733 CURVE SMOOTH",
"1122 657 OFFCURVE",
"1102 585 OFFCURVE",
"1061 518 CURVE",
"950 601 OFFCURVE",
"831 643 OFFCURVE",
"705 643 CURVE SMOOTH",
"582 643 OFFCURVE",
"462 601 OFFCURVE",
"346 518 CURVE"
);
},
{
closed = 1;
nodes = (
"607 958 OFFCURVE",
"516 988 OFFCURVE",
"432 1049 CURVE",
"511 1117 OFFCURVE",
"602 1151 OFFCURVE",
"705 1151 CURVE SMOOTH",
"808 1151 OFFCURVE",
"898 1117 OFFCURVE",
"975 1049 CURVE",
"891 988 OFFCURVE",
"801 958 OFFCURVE",
"705 958 CURVE SMOOTH"
);
}
);
width = 1380;
}
);
note = uni1CC2;
unicode = 1CC2;
},
{
glyphname = uni1CC3;
lastChange = "2016-11-10 14:47:09 +0000";
layers = (
{
layerId = "1A1DD590-1BFD-4E9D-ABB9-B5AFB25FEE83";
paths = (
{
closed = 1;
nodes = (
"806 166 OFFCURVE",
"900 191 OFFCURVE",
"988 242 CURVE SMOOTH",
"1164 342 OFFCURVE",
"1272 530 OFFCURVE",
"1272 733 CURVE SMOOTH",
"1272 835 OFFCURVE",
"1247 930 OFFCURVE",
"1196 1018 CURVE SMOOTH",
"1094 1193 OFFCURVE",
"906 1300 OFFCURVE",
"705 1300 CURVE SMOOTH",
"604 1300 OFFCURVE",
"510 1275 OFFCURVE",
"422 1225 CURVE SMOOTH",
"246 1124 OFFCURVE",
"137 937 OFFCURVE",
"137 733 CURVE SMOOTH",
"137 632 OFFCURVE",
"162 537 OFFCURVE",
"213 450 CURVE SMOOTH",
"314 274 OFFCURVE",
"501 166 OFFCURVE",
"705 166 CURVE SMOOTH"
);
},
{
closed = 1;
nodes = (
"630 315 OFFCURVE",
"561 334 OFFCURVE",
"496 372 CURVE SMOOTH",
"367 447 OFFCURVE",
"287 585 OFFCURVE",
"287 733 CURVE SMOOTH",
"287 808 OFFCURVE",
"306 877 OFFCURVE",
"344 942 CURVE SMOOTH",
"419 1071 OFFCURVE",
"557 1151 OFFCURVE",
"705 1151 CURVE SMOOTH",
"780 1151 OFFCURVE",
"849 1132 OFFCURVE",
"913 1095 CURVE SMOOTH",
"1041 1020 OFFCURVE",
"1122 881 OFFCURVE",
"1122 733 CURVE SMOOTH",
"1122 658 OFFCURVE",
"1103 589 OFFCURVE",
"1066 524 CURVE SMOOTH",
"990 395 OFFCURVE",
"853 315 OFFCURVE",
"705 315 CURVE SMOOTH"
);
}
);
width = 1380;
}
);
note = uni1CC3;
unicode = 1CC3;
},
{
glyphname = uni1CC4;
lastChange = "2016-11-10 14:47:09 +0000";
layers = (
{
layerId = "1A1DD590-1BFD-4E9D-ABB9-B5AFB25FEE83";
paths = (
{
closed = 1;
nodes = (
"1998 -621 OFFCURVE",
"2093 -572 OFFCURVE",
"2138 -487 CURVE",
"2197 -552 OFFCURVE",
"2326 -614 OFFCURVE",
"2427 -614 CURVE SMOOTH",
"2548 -614 OFFCURVE",
"2645 -548 OFFCURVE",
"2720 -393 CURVE",
"2687 -370 OFFCURVE",
"2640 -342 OFFCURVE",
"2580 -311 CURVE",
"2559 -352 OFFCURVE",
"2543 -379 OFFCURVE",
"2530 -393 CURVE SMOOTH",
"2504 -422 OFFCURVE",
"2472 -440 OFFCURVE",
"2427 -440 CURVE SMOOTH",
"2375 -440 OFFCURVE",
"2309 -400 OFFCURVE",
"2228 -319 CURVE",
"2822 1462 LINE",
"2152 1462 LINE",
"2099 1300 LINE",
"2570 1300 LINE",
"2073 -176 LINE",
"2016 -129 OFFCURVE",
"1954 -106 OFFCURVE",
"1888 -106 CURVE SMOOTH",
"1835 -106 OFFCURVE",
"1788 -118 OFFCURVE",
"1747 -141 CURVE SMOOTH",
"1663 -188 OFFCURVE",
"1614 -275 OFFCURVE",
"1614 -367 CURVE SMOOTH",
"1614 -519 OFFCURVE",
"1727 -621 OFFCURVE",
"1894 -621 CURVE SMOOTH"
);
},
{
closed = 1;
nodes = (
"776 0 LINE",
"967 582 LINE",
"1161 0 LINE",
"1356 0 LINE",
"1061 848 LINE",
"872 848 LINE",
"631 162 LINE",
"207 162 LINE",
"582 1300 LINE",
"997 1300 LINE",
"1051 1462 LINE",
"438 1462 LINE",
"-45 0 LINE"
);
},
{
closed = 1;
nodes = (
"1820 -469 OFFCURVE",
"1776 -429 OFFCURVE",
"1776 -365 CURVE SMOOTH",
"1776 -298 OFFCURVE",
"1824 -256 OFFCURVE",
"1888 -256 CURVE SMOOTH",
"1934 -256 OFFCURVE",
"1972 -285 OFFCURVE",
"2001 -344 CURVE",
"1988 -419 OFFCURVE",
"1941 -469 OFFCURVE",
"1884 -469 CURVE SMOOTH"
);
},
{
closed = 1;
nodes = (
"1948 84 LINE",
"2001 246 LINE",
"1511 246 LINE",
"1458 84 LINE"
);
},
{
closed = 1;
nodes = (
"2083 489 LINE",
"2136 651 LINE",
"1389 651 LINE",
"1335 489 LINE"
);
},
{
closed = 1;
nodes = (
"2208 895 LINE",
"2261 1057 LINE",
"1268 1057 LINE",
"1214 895 LINE"
);
},
{
closed = 1;
nodes = (
"1997 1300 LINE",
"2050 1462 LINE",
"1145 1462 LINE",
"1092 1300 LINE"
);
},
{
closed = 1;
nodes = (
"3088 84 LINE",
"3142 246 LINE",
"2652 246 LINE",
"2599 84 LINE"
);
},
{
closed = 1;
nodes = (
"3224 489 LINE",
"3277 651 LINE",
"2787 651 LINE",
"2734 489 LINE"
);
},
{
closed = 1;
nodes = (
"3359 895 LINE",
"3412 1057 LINE",
"2922 1057 LINE",
"2869 895 LINE"
);
},
{
closed = 1;
nodes = (
"3490 1300 LINE",
"3543 1462 LINE",
"3054 1462 LINE",
"3000 1300 LINE"
);
}
);
width = 3441;
}
);
note = uni1CC4;
unicode = 1CC4;
},
{
glyphname = uni1CC5;
lastChange = "2016-11-10 14:47:09 +0000";
layers = (
{
layerId = "1A1DD590-1BFD-4E9D-ABB9-B5AFB25FEE83";
paths = (
{
closed = 1;
nodes = (
"387 0 LINE",
"874 1462 LINE",
"205 1462 LINE",
"152 1300 LINE",
"623 1300 LINE",
"184 0 LINE"
);
},
{
closed = 1;
nodes = (
"1143 84 LINE",
"1196 246 LINE",
"707 246 LINE",
"653 84 LINE"
);
},
{
closed = 1;
nodes = (
"1278 489 LINE",
"1331 651 LINE",
"842 651 LINE",
"788 489 LINE"
);
},
{
closed = 1;
nodes = (
"1413 895 LINE",
"1466 1057 LINE",
"977 1057 LINE",
"924 895 LINE"
);
},
{
closed = 1;
nodes = (
"1544 1300 LINE",
"1597 1462 LINE",
"1108 1462 LINE",
"1055 1300 LINE"
);
}
);
width = 1524;
}
);
note = uni1CC5;
unicode = 1CC5;
},
{
glyphname = uni1CC6;
lastChange = "2016-11-10 14:47:09 +0000";
layers = (
{
layerId = "1A1DD590-1BFD-4E9D-ABB9-B5AFB25FEE83";
paths = (
{
closed = 1;
nodes = (
"776 0 LINE",
"967 582 LINE",
"1161 0 LINE",
"1356 0 LINE",
"1277 232 LINE",
"1061 848 LINE",
"872 848 LINE",
"811 668 LINE",
"631 162 LINE",
"207 162 LINE",
"582 1300 LINE",
"997 1300 LINE",
"1049 1462 LINE",
"438 1462 LINE",
"-45 0 LINE"
);
},
{
closed = 1;
nodes = (
"1948 84 LINE",
"2001 246 LINE",
"1511 246 LINE",
"1458 84 LINE"
);
},
{
closed = 1;
nodes = (
"2083 489 LINE",
"2136 651 LINE",
"1389 651 LINE",
"1335 489 LINE"
);
},
{
closed = 1;
nodes = (
"2208 895 LINE",
"2261 1057 LINE",
"1268 1057 LINE",
"1214 895 LINE"
);
},
{
closed = 1;
nodes = (
"2363 1300 LINE",
"2417 1462 LINE",
"1145 1462 LINE",
"1092 1300 LINE"
);
}
);
width = 2324;
}
);
note = uni1CC6;
unicode = 1CC6;
},
{
glyphname = uni1CC7;
lastChange = "2016-11-10 14:47:09 +0000";
layers = (
{
layerId = "1A1DD590-1BFD-4E9D-ABB9-B5AFB25FEE83";
paths = (
{
closed = 1;
nodes = (
"1415 0 LINE",
"1632 662 LINE",
"2111 0 LINE",
"2238 0 LINE",
"2726 1462 LINE",
"1720 1462 LINE",
"1634 1206 LINE",
"1831 1206 LINE",
"1864 1300 LINE",
"2474 1300 LINE",
"2128 276 LINE",
"1630 971 LINE",
"1542 971 LINE",
"1272 162 LINE",
"868 162 LINE",
"1243 1300 LINE",
"1434 1300 LINE",
"1485 1462 LINE",
"1100 1462 LINE",
"616 0 LINE"
);
},
{
closed = 1;
nodes = (
"391 84 LINE",
"444 246 LINE",
"-45 246 LINE",
"-98 84 LINE"
);
},
{
closed = 1;
nodes = (
"522 489 LINE",
"575 651 LINE",
"86 651 LINE",
"33 489 LINE"
);
},
{
closed = 1;
nodes = (
"657 895 LINE",
"711 1057 LINE",
"221 1057 LINE",
"168 895 LINE"
);
},
{
closed = 1;
nodes = (
"788 1300 LINE",
"842 1462 LINE",
"352 1462 LINE",
"299 1300 LINE"
);
},
{
closed = 1;
nodes = (
"3013 84 LINE",
"3066 246 LINE",
"2576 246 LINE",
"2523 84 LINE"
);
},
{
closed = 1;
nodes = (
"3144 489 LINE",
"3197 651 LINE",
"2707 651 LINE",
"2654 489 LINE"
);
},
{
closed = 1;
nodes = (
"3279 895 LINE",
"3332 1057 LINE",
"2843 1057 LINE",
"2789 895 LINE"
);
},
{
closed = 1;
nodes = (
"3410 1300 LINE",
"3463 1462 LINE",
"2974 1462 LINE",
"2920 1300 LINE"
);
}
);
width = 3369;
}
);
note = uni1CC7;
unicode = 1CC7;
},
